<?xml version="1.0" encoding="UTF-8" standalone="no"?>
<!DOCTYPE svg PUBLIC "-//W3C//DTD SVG 1.1//EN" "http://www.w3.org/Graphics/SVG/1.1/DTD/svg11.dtd">
<svg width="100%" height="100%" viewBox="0 0 171 195" version="1.1" xmlns="http://www.w3.org/2000/svg" xmlns:xlink="http://www.w3.org/1999/xlink" xml:space="preserve" xmlns:serif="http://www.serif.com/" style="fill-rule:evenodd;clip-rule:evenodd;stroke-linejoin:round;stroke-miterlimit:2;">
    <g transform="matrix(1,0,0,1,-6.451083,-31.262472)">
        <g id="Background" transform="matrix(1,0,0,1,-5,-1)">
            <path d="M92.499,129.034C88.488,128.996 88.532,128.7 84.533,128.237C70.721,126.636 58.003,115.19 54.85,102.418C52.265,91.948 55.623,89.267 51.532,89.099C51.447,89.095 16.758,89.097 16.5,89.098C12.156,89.116 11.442,89.744 11.451,88.507C11.459,87.441 12.127,87.671 14.556,85.563C34.306,68.426 73.56,34.081 74.494,33.491C76.266,32.373 76.409,32.535 88.5,32.535C175.617,32.535 175.613,32.559 180.525,32.321C181.422,32.277 181.564,32.076 182.073,32.803C182.833,33.888 181.74,33.738 176.701,37.763C173.731,40.136 173.675,40.415 173.647,42.502C173.506,52.928 173.616,53.056 174.204,53.738C175.497,55.24 176.814,54.781 176.899,58.486C176.903,58.689 176.969,123.446 176.864,124.536C176.164,131.827 164.811,131.89 164.135,124.535C164.057,123.683 164.046,58.281 164.141,57.458C164.526,54.109 167.018,54.927 167.365,52.483C167.403,52.217 167.405,49.378 167.457,48.501C167.754,43.467 164.508,47.689 160.21,51.134C150.37,59.019 143.612,64.84 142.11,66.023C139.475,68.098 138.339,68.322 139.899,71.301C144.285,79.675 144.851,94.109 139.21,104.35C137.371,107.689 136.108,110.295 126.231,119.196C113.885,130.323 116.235,136.528 126.648,145.32C133.619,151.207 144.447,157.028 149.177,170.612C150.517,174.461 150.932,178.414 150.935,178.462C151.267,184.978 151.461,185.012 150.067,191.407C147.227,204.432 136.38,212.409 134.633,213.694C124.695,221.004 100.117,230.953 72.544,224.317C71.121,223.974 62.537,221.908 55.657,217.256C53.316,215.673 44.222,210.212 42.191,196.558C40.522,185.33 47.024,166.382 72.593,158.819C77.556,157.351 82.344,155.784 98.439,154.097C99.699,153.964 101.41,154.026 101.419,154.023C101.595,153.967 103.204,153.449 102.041,151.799C100.122,149.077 95.801,144.28 96.86,134.557C97.113,132.237 98.309,129.889 98.213,129.519C97.929,128.427 97.626,128.579 96.513,128.685C93.648,128.957 93.672,128.978 92.499,129.034ZM98.439,121.964C100.089,122.159 110.669,124.21 118.108,115.169C127.947,103.211 122.019,80.22 115.779,70.337C111.131,62.976 105.422,56.344 95.492,55.607C93.903,55.49 88.42,55.756 84.72,57.889C79.171,61.087 68.266,72.124 76.426,98.524C78.961,106.723 85.987,117.483 94.362,120.838C97.285,122.009 97.734,121.835 98.439,121.964ZM135.93,191.494C135.885,190.391 135.596,183.31 131.684,178.361C128.402,174.209 128.428,174.19 128.119,173.85C124.484,169.844 112.612,161.349 111.391,160.727C109.099,159.56 99.124,160.326 98.49,160.42C95.482,160.862 95.504,160.878 92.465,161.172C89.234,161.483 78.724,164.372 73.632,167.712C72.793,168.262 67.809,171.531 64.893,176.716C60.757,184.07 61.94,192.892 63.794,197.381C66.604,204.185 71.959,209.338 81.67,213.035C103.721,221.429 127.661,214.882 133.5,202.5C135.841,197.536 135.863,194.658 135.93,191.494Z"/>
        </g>
    </g>
</svg>
